<svg width="220" height="65" viewBox="0 0 220 65" fill="none" xmlns="http://www.w3.org/2000/svg">
<g clip-path="url(#clip0)">
<rect width="220" height="65" fill="white"/>
<path d="M0 11.4444H7.16282C15.4276 11.4444 17.5529 16.7969 17.5529 20.6538C17.5529 24.6681 16.0573 26.9507 12.5153 28.6037C16.7657 29.8631 18.34 33.4839 18.34 37.6556C18.34 41.0403 17.0806 48.3605 7.47767 48.3605H0C0 48.3605 0 11.4444 0 11.4444ZM5.19502 26.6359H5.98214C9.68162 26.6359 12.4366 25.3765 12.4366 21.2835C12.4366 17.8988 10.6262 15.931 6.13956 15.931H5.19502V26.6359ZM5.19502 44.1887C10.5475 44.1887 12.9875 42.3784 12.9875 37.7343C12.9875 33.169 10.5475 30.9651 5.82471 30.9651H5.03759V44.2675H5.19502V44.1887Z" fill="#2A2B2C"/>
<path d="M42.03 11.4444L46.0443 26.872H46.2017L50.0586 11.4444H55.2537L48.7992 33.4839V48.3605H43.6042V33.4839L36.835 11.4444H42.03V11.4444Z" fill="#2A2B2C"/>
<path d="M90.5974 11.4444L79.1054 44.0313H89.6529V48.4392H72.1787L83.8281 15.8523H73.4381V11.4444H90.5974V11.4444Z" fill="#2A2B2C"/>
<path d="M138.768 20.8112C138.296 17.4266 137.115 15.4587 135.068 15.4587C132.471 15.4587 130.66 19.1582 130.66 30.8864C130.66 38.364 131.29 44.661 135.068 44.661C138.453 44.661 139.319 39.466 139.476 31.8309H134.281V27.1082H144.671V31.3586C144.671 40.2531 142.861 49.1476 135.147 49.1476C126.253 49.1476 125.387 39.3873 125.387 29.8631C125.387 19.6305 127.197 10.5786 135.147 10.5786C140.342 10.5786 142.782 13.9632 143.884 18.8434L138.768 20.8112Z" fill="#2A2B2C"/>
<path d="M180.882 11.4444V15.8523H172.617V26.7146H180.882V31.1225H172.617V44.2675H180.882V48.6754H167.422V11.4444H180.882Z" fill="#2A2B2C"/>
<path d="M207.328 11.4444L214.963 34.7433H215.12V11.4444H220V48.3605H214.805L207.17 25.0616H207.013V48.3605H202.133V11.4444H207.328Z" fill="#2A2B2C"/>
<path d="M110.746 -2.3302V67.3302" stroke="#F6E03B" stroke-width="1.63374"/>
</g>
<defs>
<clipPath id="clip0">
<rect width="220" height="65" fill="white"/>
</clipPath>
</defs>
</svg>
