<svg width="110" height="114" viewBox="0 0 110 114" fill="none" xmlns="http://www.w3.org/2000/svg">
<g filter="url(#filter0_ddd)">
<circle cx="55.0005" cy="53" r="45" fill="white"/>
</g>
<mask id="mask0" mask-type="alpha" maskUnits="userSpaceOnUse" x="10" y="8" width="91" height="90">
<circle cx="55.0005" cy="53" r="45" fill="white"/>
</mask>
<g mask="url(#mask0)">
<line x1="-0.999512" y1="22.5" x2="110" y2="22.5" stroke="#F2F3F4"/>
<line x1="-0.999512" y1="42.5" x2="110" y2="42.5" stroke="#F2F3F4"/>
<line x1="-0.999512" y1="62.5" x2="110" y2="62.5" stroke="#F2F3F4"/>
<line x1="-0.999512" y1="82.5" x2="110" y2="82.5" stroke="#F2F3F4"/>
<line x1="24.0005" y1="108.5" x2="24.0005" y2="-2.5" stroke="#F2F3F4"/>
<line x1="44.0005" y1="108.5" x2="44.0005" y2="-2.5" stroke="#F2F3F4"/>
<line x1="64.0005" y1="108.5" x2="64.0005" y2="-2.5" stroke="#F2F3F4"/>
<line x1="84.0005" y1="108.5" x2="84.0005" y2="-2.5" stroke="#F2F3F4"/>
<circle cx="62.0005" cy="25" r="8" fill="#6FCF97"/>
<circle cx="70.0005" cy="61" r="16" fill="#007DE5"/>
<circle cx="41.0005" cy="78" r="4" fill="#EF5565"/>
<circle cx="33.0005" cy="47" r="10" fill="#A6CEE3"/>
</g>
<defs>
<filter id="filter0_ddd" x="2.00049" y="8" width="106" height="106" filterUnits="userSpaceOnUse" color-interpolation-filters="sRGB">
<feFlood flood-opacity="0" result="BackgroundImageFix"/>
<feColorMatrix in="SourceAlpha" type="matrix" values="0 0 0 0 0 0 0 0 0 0 0 0 0 0 0 0 0 0 127 0"/>
<feOffset dy="2"/>
<feGaussianBlur stdDeviation="1"/>
<feColorMatrix type="matrix" values="0 0 0 0 0 0 0 0 0 0 0 0 0 0 0 0 0 0 0.05 0"/>
<feBlend mode="normal" in2="BackgroundImageFix" result="effect1_dropShadow"/>
<feColorMatrix in="SourceAlpha" type="matrix" values="0 0 0 0 0 0 0 0 0 0 0 0 0 0 0 0 0 0 127 0"/>
<feOffset dy="4"/>
<feGaussianBlur stdDeviation="2"/>
<feColorMatrix type="matrix" values="0 0 0 0 0 0 0 0 0 0 0 0 0 0 0 0 0 0 0.05 0"/>
<feBlend mode="normal" in2="effect1_dropShadow" result="effect2_dropShadow"/>
<feColorMatrix in="SourceAlpha" type="matrix" values="0 0 0 0 0 0 0 0 0 0 0 0 0 0 0 0 0 0 127 0"/>
<feOffset dy="8"/>
<feGaussianBlur stdDeviation="4"/>
<feColorMatrix type="matrix" values="0 0 0 0 0 0 0 0 0 0 0 0 0 0 0 0 0 0 0.05 0"/>
<feBlend mode="normal" in2="effect2_dropShadow" result="effect3_dropShadow"/>
<feBlend mode="normal" in="SourceGraphic" in2="effect3_dropShadow" result="shape"/>
</filter>
</defs>
</svg>
