<svg width="106" height="106" viewBox="0 0 106 106" fill="none" xmlns="http://www.w3.org/2000/svg">
<g filter="url(#filter0_ddd)">
<circle cx="53" cy="45" r="45" fill="white"/>
</g>
<circle cx="53" cy="45" r="41" stroke="#007DE5" stroke-width="4"/>
<path d="M42.703 48.864V50.606H40.389V55H38.439V50.606H30.223V48.708L37.451 37.788H40.389V48.864H42.703ZM38.439 48.864V39.452L32.043 48.864H38.439ZM47.6119 52.348V55H45.0899V52.348H47.6119ZM58.0932 37.788V55H56.1432V39.66H52.5032V37.788H58.0932ZM73.2981 45.536C74.3208 45.9347 75.1268 46.5413 75.7161 47.356C76.3054 48.1707 76.6001 49.02 76.6001 49.904C76.6001 50.7707 76.4614 51.5247 76.1841 52.166C75.9068 52.79 75.5081 53.3273 74.9881 53.778C73.8961 54.7313 72.3794 55.208 70.4381 55.208C68.4968 55.208 66.9801 54.7313 65.8881 53.778C64.8134 52.842 64.2761 51.6027 64.2761 50.06C64.2761 49.072 64.5708 48.1707 65.1601 47.356C65.7494 46.5413 66.5554 45.9347 67.5781 45.536C66.9194 45.2933 66.3388 44.8947 65.8361 44.34C65.2468 43.664 64.9521 42.858 64.9521 41.922C64.9521 40.622 65.4201 39.5733 66.3561 38.776C67.2921 37.9787 68.6528 37.58 70.4381 37.58C72.2234 37.58 73.5841 37.9787 74.5201 38.776C75.4561 39.5733 75.9241 40.622 75.9241 41.922C75.9241 43.2913 75.3434 44.34 74.1821 45.068C73.8701 45.276 73.5754 45.432 73.2981 45.536ZM70.4381 44.704C71.3568 44.704 72.1454 44.496 72.8041 44.08C73.5841 43.5773 73.9741 42.9013 73.9741 42.052C73.9741 41.2027 73.6448 40.5613 72.9861 40.128C72.3274 39.6773 71.4781 39.452 70.4381 39.452C69.3981 39.452 68.5488 39.6773 67.8901 40.128C67.2314 40.5613 66.9021 41.2027 66.9021 42.052C66.9021 42.9013 67.2574 43.56 67.9681 44.028C68.6961 44.4787 69.5194 44.704 70.4381 44.704ZM70.4381 53.336C71.7381 53.336 72.7608 53.0413 73.5061 52.452C74.2688 51.8627 74.6501 51.0567 74.6501 50.034C74.6501 48.9593 74.2341 48.084 73.4021 47.408C72.6221 46.8013 71.6341 46.498 70.4381 46.498C69.2421 46.498 68.2541 46.8013 67.4741 47.408C66.6421 48.084 66.2261 48.9507 66.2261 50.008C66.2261 51.048 66.5988 51.8627 67.3441 52.452C68.1068 53.0413 69.1381 53.336 70.4381 53.336Z" fill="#2A2B2C"/>
<path d="M47 23L48.0575 24.0575L52.25 19.8725V29H53.75V19.8725L57.935 24.065L59 23L53 17L47 23Z" fill="#6FCF97"/>
<defs>
<filter id="filter0_ddd" x="0" y="0" width="106" height="106" filterUnits="userSpaceOnUse" color-interpolation-filters="sRGB">
<feFlood flood-opacity="0" result="BackgroundImageFix"/>
<feColorMatrix in="SourceAlpha" type="matrix" values="0 0 0 0 0 0 0 0 0 0 0 0 0 0 0 0 0 0 127 0"/>
<feOffset dy="2"/>
<feGaussianBlur stdDeviation="1"/>
<feColorMatrix type="matrix" values="0 0 0 0 0 0 0 0 0 0 0 0 0 0 0 0 0 0 0.05 0"/>
<feBlend mode="normal" in2="BackgroundImageFix" result="effect1_dropShadow"/>
<feColorMatrix in="SourceAlpha" type="matrix" values="0 0 0 0 0 0 0 0 0 0 0 0 0 0 0 0 0 0 127 0"/>
<feOffset dy="4"/>
<feGaussianBlur stdDeviation="2"/>
<feColorMatrix type="matrix" values="0 0 0 0 0 0 0 0 0 0 0 0 0 0 0 0 0 0 0.05 0"/>
<feBlend mode="normal" in2="effect1_dropShadow" result="effect2_dropShadow"/>
<feColorMatrix in="SourceAlpha" type="matrix" values="0 0 0 0 0 0 0 0 0 0 0 0 0 0 0 0 0 0 127 0"/>
<feOffset dy="8"/>
<feGaussianBlur stdDeviation="4"/>
<feColorMatrix type="matrix" values="0 0 0 0 0 0 0 0 0 0 0 0 0 0 0 0 0 0 0.05 0"/>
<feBlend mode="normal" in2="effect2_dropShadow" result="effect3_dropShadow"/>
<feBlend mode="normal" in="SourceGraphic" in2="effect3_dropShadow" result="shape"/>
</filter>
</defs>
</svg>
