<svg width="106" height="106" viewBox="0 0 106 106" fill="none" xmlns="http://www.w3.org/2000/svg">
<g filter="url(#filter0_ddd)">
<circle cx="53" cy="45" r="45" fill="white"/>
</g>
<mask id="mask0" mask-type="alpha" maskUnits="userSpaceOnUse" x="9" y="1" width="88" height="88">
<circle cx="53" cy="45" r="44" fill="#C4C4C4"/>
</mask>
<g mask="url(#mask0)">
<path d="M53 1C61.9031 1 70.5967 3.70083 77.9324 8.74571C85.2682 13.7906 90.901 20.9422 94.0867 29.2558C97.2724 37.5693 97.8612 46.6538 95.7753 55.309C93.6893 63.9643 89.0268 71.7831 82.4036 77.7327L53 45L53 1Z" fill="#6FCF97"/>
<path opacity="0.7" d="M82.4036 77.7327C77.1954 82.4112 70.9459 85.7794 64.1744 87.5574C57.4029 89.3354 50.3048 89.4719 43.47 87.9556C36.6351 86.4392 30.2608 83.3138 24.8765 78.8389C19.4923 74.3641 15.2536 68.669 12.5125 62.2268L53 45L82.4036 77.7327Z" fill="#007DE5"/>
<path opacity="0.4" d="M12.5125 62.2268C9.12111 54.2562 8.15783 45.4618 9.74341 36.9459C11.329 28.4301 15.3929 20.5718 21.4257 14.3558L53 45L12.5125 62.2268Z" fill="#007DE5"/>
<path opacity="0.25" d="M21.4257 14.3558C25.7422 9.90833 30.9496 6.42291 36.7068 4.12788L53 45L21.4257 14.3558Z" fill="#007DE5"/>
<path opacity="0.15" d="M36.7068 4.12788C41.8904 2.06149 47.4197 1 53 1V45L36.7068 4.12788Z" fill="#007DE5"/>
</g>
<defs>
<filter id="filter0_ddd" x="0" y="0" width="106" height="106" filterUnits="userSpaceOnUse" color-interpolation-filters="sRGB">
<feFlood flood-opacity="0" result="BackgroundImageFix"/>
<feColorMatrix in="SourceAlpha" type="matrix" values="0 0 0 0 0 0 0 0 0 0 0 0 0 0 0 0 0 0 127 0"/>
<feOffset dy="2"/>
<feGaussianBlur stdDeviation="1"/>
<feColorMatrix type="matrix" values="0 0 0 0 0 0 0 0 0 0 0 0 0 0 0 0 0 0 0.05 0"/>
<feBlend mode="normal" in2="BackgroundImageFix" result="effect1_dropShadow"/>
<feColorMatrix in="SourceAlpha" type="matrix" values="0 0 0 0 0 0 0 0 0 0 0 0 0 0 0 0 0 0 127 0"/>
<feOffset dy="4"/>
<feGaussianBlur stdDeviation="2"/>
<feColorMatrix type="matrix" values="0 0 0 0 0 0 0 0 0 0 0 0 0 0 0 0 0 0 0.05 0"/>
<feBlend mode="normal" in2="effect1_dropShadow" result="effect2_dropShadow"/>
<feColorMatrix in="SourceAlpha" type="matrix" values="0 0 0 0 0 0 0 0 0 0 0 0 0 0 0 0 0 0 127 0"/>
<feOffset dy="8"/>
<feGaussianBlur stdDeviation="4"/>
<feColorMatrix type="matrix" values="0 0 0 0 0 0 0 0 0 0 0 0 0 0 0 0 0 0 0.05 0"/>
<feBlend mode="normal" in2="effect2_dropShadow" result="effect3_dropShadow"/>
<feBlend mode="normal" in="SourceGraphic" in2="effect3_dropShadow" result="shape"/>
</filter>
</defs>
</svg>
