<svg width="256" height="75" viewBox="0 0 256 75" fill="none" xmlns="http://www.w3.org/2000/svg">
<path d="M26.9406 67.7966C34.0823 67.7966 39.2088 64.8305 42.32 58.8983H51.0174C49.1789 63.7006 46.2444 67.5847 42.214 70.5508C38.2542 73.517 33.1277 75 26.8345 75C18.8443 75 12.3389 72.3517 7.3185 67.0551C2.4395 61.8997 0 55.4379 0 47.6695C0 39.8305 2.33343 33.3686 7.0003 28.2839C11.95 22.9873 18.3846 20.339 26.3042 20.339C34.2237 20.339 40.6583 22.9873 45.608 28.2839C50.2749 33.3686 52.6083 39.8305 52.6083 47.6695V50.8475H8.16702C8.7327 55.7203 10.6772 59.7458 14.0006 62.9237C17.3947 66.1723 21.708 67.7966 26.9406 67.7966ZM26.3042 27.5424C21.4252 27.5424 17.324 29.0607 14.0006 32.0975C10.8894 34.9929 8.98019 38.7712 8.27309 43.4322H44.3353C43.6282 38.7712 41.719 34.9929 38.6077 32.0975C35.2844 29.0607 31.1832 27.5424 26.3042 27.5424Z" fill="#2A2B2C"/>
<path d="M105.815 65.678C101.572 71.8927 95.2438 75 86.8293 75C79.1926 75 72.9701 72.3517 68.1618 67.0551C63.4949 61.8291 61.1615 55.3672 61.1615 47.6695C61.1615 39.9718 63.4949 33.5099 68.1618 28.2839C72.9701 22.9873 79.3694 20.339 87.3596 20.339C95.3499 20.339 101.502 23.4816 105.815 29.7669V21.1864H113.77V74.1525H105.815V65.678ZM87.8899 67.7966C93.6175 67.7966 98.1429 65.8192 101.466 61.8644C104.648 58.1215 106.239 53.3898 106.239 47.6695C106.239 41.9492 104.648 37.2175 101.466 33.4746C98.1429 29.5198 93.6175 27.5424 87.8899 27.5424C82.2331 27.5424 77.637 29.5198 74.1015 33.4746C70.7781 37.2175 69.1164 41.9492 69.1164 47.6695C69.1164 53.3898 70.7781 58.1215 74.1015 61.8644C77.637 65.8192 82.2331 67.7966 87.8899 67.7966Z" fill="#2A2B2C"/>
<path d="M137.606 29.2373C141.141 23.3051 146.515 20.339 153.727 20.339C157.263 20.339 160.516 21.2924 163.485 23.1992C166.526 25.0353 168.895 27.6483 170.592 31.0381C172.996 26.589 176.744 23.411 181.835 21.5042C183.885 20.7274 186.183 20.339 188.729 20.339C191.345 20.339 193.82 20.8686 196.154 21.928C198.558 22.9167 200.679 24.3644 202.517 26.2712C206.477 30.5085 208.457 35.8051 208.457 42.161V74.1525H200.502V42.3729C200.502 37.9944 199.265 34.3927 196.79 31.5678C194.315 28.8842 191.168 27.5424 187.35 27.5424C183.32 27.5424 179.961 28.8489 177.274 31.4619C174.446 34.1455 173.031 37.8178 173.031 42.4788V74.1525H165.076V42.3729C165.076 37.9944 163.839 34.3927 161.364 31.5678C158.889 28.8842 155.743 27.5424 151.924 27.5424C147.894 27.5424 144.535 28.8489 141.848 31.4619C139.02 34.1455 137.606 37.8178 137.606 42.4788V74.1525H129.651V21.1864H137.606V29.2373Z" fill="#2A2B2C"/>
<path d="M231.809 74.1525H223.854V0H231.809V74.1525Z" fill="#2A2B2C"/>
<path d="M247.727 21.1864H255.682V74.1525H247.727V21.1864ZM256 1.90678V12.2881H247.409V1.90678H256Z" fill="#2A2B2C"/>
</svg>
