<svg width="110" height="114" viewBox="0 0 110 114" fill="none" xmlns="http://www.w3.org/2000/svg">
<g filter="url(#filter0_ddd)">
<circle cx="55" cy="53" r="45" fill="white"/>
</g>
<mask id="mask0" mask-type="alpha" maskUnits="userSpaceOnUse" x="10" y="8" width="90" height="90">
<circle cx="55" cy="53" r="45" fill="white"/>
</mask>
<g mask="url(#mask0)">
<line x1="-1" y1="22.5" x2="110" y2="22.5" stroke="#F2F3F4"/>
<line x1="-1" y1="42.5" x2="110" y2="42.5" stroke="#F2F3F4"/>
<line x1="-1" y1="62.5" x2="110" y2="62.5" stroke="#F2F3F4"/>
<line x1="-1" y1="82.5" x2="110" y2="82.5" stroke="#F2F3F4"/>
<line x1="24" y1="108.5" x2="24" y2="-2.5" stroke="#F2F3F4"/>
<line x1="44" y1="108.5" x2="44" y2="-2.5" stroke="#F2F3F4"/>
<line x1="64" y1="108.5" x2="64" y2="-2.5" stroke="#F2F3F4"/>
<line x1="84" y1="108.5" x2="84" y2="-2.5" stroke="#F2F3F4"/>
<path d="M10 95C21 95 21 84.2353 33 84.2353C44 84.2353 44 67.4902 55 67.4902C66 67.4902 66 48.3529 78 48.3529C89 48.3529 89 34 100 34" stroke="#A6CEE3" stroke-width="2"/>
<path d="M10 97C21 97 21 88 33 88C44 88 44 74 55 74C66 74 66 60 78 60C89 60 89 50 100 50" stroke="#007DE5" stroke-width="2"/>
<path d="M10 85C21 85 21 71 33 71C44 71 44 54 55 54C66 54 66 31 78 31C89 31 89 10 100 10" stroke="#6FCF97" stroke-width="2"/>
<path d="M20.0001 82.3408C29.2901 88.2311 36.7869 76.4075 46.9214 82.8334C56.2114 88.7237 65.3147 74.3665 74.6046 80.2568C83.8946 86.1472 96.2108 66.7227 106.345 73.1485C115.635 79.0389 126.881 61.3035 136.171 67.1939" stroke="#EF5565" stroke-width="2"/>
</g>
<defs>
<filter id="filter0_ddd" x="2" y="8" width="106" height="106" filterUnits="userSpaceOnUse" color-interpolation-filters="sRGB">
<feFlood flood-opacity="0" result="BackgroundImageFix"/>
<feColorMatrix in="SourceAlpha" type="matrix" values="0 0 0 0 0 0 0 0 0 0 0 0 0 0 0 0 0 0 127 0"/>
<feOffset dy="2"/>
<feGaussianBlur stdDeviation="1"/>
<feColorMatrix type="matrix" values="0 0 0 0 0 0 0 0 0 0 0 0 0 0 0 0 0 0 0.05 0"/>
<feBlend mode="normal" in2="BackgroundImageFix" result="effect1_dropShadow"/>
<feColorMatrix in="SourceAlpha" type="matrix" values="0 0 0 0 0 0 0 0 0 0 0 0 0 0 0 0 0 0 127 0"/>
<feOffset dy="4"/>
<feGaussianBlur stdDeviation="2"/>
<feColorMatrix type="matrix" values="0 0 0 0 0 0 0 0 0 0 0 0 0 0 0 0 0 0 0.05 0"/>
<feBlend mode="normal" in2="effect1_dropShadow" result="effect2_dropShadow"/>
<feColorMatrix in="SourceAlpha" type="matrix" values="0 0 0 0 0 0 0 0 0 0 0 0 0 0 0 0 0 0 127 0"/>
<feOffset dy="8"/>
<feGaussianBlur stdDeviation="4"/>
<feColorMatrix type="matrix" values="0 0 0 0 0 0 0 0 0 0 0 0 0 0 0 0 0 0 0.05 0"/>
<feBlend mode="normal" in2="effect2_dropShadow" result="effect3_dropShadow"/>
<feBlend mode="normal" in="SourceGraphic" in2="effect3_dropShadow" result="shape"/>
</filter>
</defs>
</svg>
