<svg width="195" height="47" viewBox="0 0 195 47" fill="none" xmlns="http://www.w3.org/2000/svg">
<rect width="195" height="47" fill="white"/>
<path d="M111.959 13.0153C113.697 13.0153 114.907 14.0699 114.94 15.5789C114.973 17.0149 114.201 17.6554 114.167 17.6831L114.094 17.7423L114.014 17.6932C113.454 17.3521 112.857 17.1785 112.244 17.1785C110.855 17.1785 109.353 18.1236 108.416 19.591V26.8175C108.416 31.2902 107.026 33.4561 103.774 34.0628L103.613 34.0904V13.0165H105.673C106.879 13.0165 107.896 13.9416 108.039 15.1661L108.09 15.6041C108.707 14.6237 110.153 13.0153 111.959 13.0153Z" fill="#566E88"/>
<path d="M33.7725 16.5127C30.9018 16.5127 29.2544 18.992 29.2544 23.3125C29.2544 27.6053 30.9018 30.0682 33.7725 30.0682C36.618 30.0682 38.2478 27.6053 38.2478 23.3125C38.2478 18.992 36.618 16.5127 33.7725 16.5127ZM33.7725 34.2327C27.899 34.2327 24.248 30.0796 24.248 23.3956V23.1854C24.248 16.5014 27.8978 12.3495 33.7725 12.3495C39.6209 12.3495 43.2567 16.5027 43.2567 23.1854V23.3956C43.2567 30.0808 39.6209 34.2327 33.7725 34.2327Z" fill="#566E88"/>
<path d="M45.5547 33.5644V9.22842C45.5547 6.59434 47.6489 4.44983 50.2213 4.44983H50.3572V28.7845C50.3572 31.4211 48.263 33.5644 45.6906 33.5644H45.5547Z" fill="#566E88"/>
<path d="M60.0499 42.5502C59.1375 42.5502 57.6562 42.4319 56.7136 42.2117L56.5991 42.1853L56.6532 41.5006C56.7816 39.8935 58.1143 38.635 59.69 38.635C63.1962 38.635 65.5069 37.6986 65.5069 33.1315V32.1549C63.9627 33.2825 62.0082 33.8992 59.9694 33.8992C55.6074 33.8992 53.3018 31.0474 53.3018 25.6521V13.0166H53.4377C56.0114 13.0166 58.1043 15.1598 58.1043 17.7952V25.0241C58.1043 28.0999 59.0331 29.3572 61.3147 29.3572C63.6417 29.3383 65.5056 27.6003 65.5056 24.97V17.7952C65.5056 15.1598 67.5998 13.0166 70.1722 13.0166H70.3081V28.2837C70.3081 29.8128 70.3081 31.255 70.2276 32.6381C69.9067 39.4933 66.7679 42.5502 60.0499 42.5502Z" fill="#566E88"/>
<path d="M145.037 23.8272C140.935 23.8272 138.723 25.199 138.723 27.4908C138.723 29.1407 139.83 30.1916 141.568 30.1916H141.616C143.879 30.1727 145.718 28.2232 145.718 25.8434V23.8272H145.037ZM149.323 34.2327C147.582 34.2327 146.475 33.4889 146.029 32.0189C144.544 33.4889 142.537 34.2327 140.058 34.2327C136.902 34.2327 133.718 32.2895 133.718 27.9501C133.718 22.9664 137.604 20.3311 144.958 20.3311H145.718V19.5508C145.718 17.3635 144.564 16.4725 141.732 16.4725C139.839 16.4725 137.891 16.9079 136.25 17.702L136.172 17.7385L136.105 17.6819C136.079 17.6592 135.468 17.1319 135.353 16.0962C135.197 14.6791 135.905 13.5527 137.208 13.155C138.914 12.6352 140.84 12.3495 142.629 12.3495C148.013 12.3495 150.522 14.7307 150.522 19.8428V29.663C150.522 30.7378 150.678 31.0297 151.772 31.0297H151.908V31.6099C151.908 33.0534 150.734 34.2302 149.323 34.2327Z" fill="#566E88"/>
<path d="M79.4255 34.2327C77.8863 34.2327 75.5404 33.7393 74.2278 32.8307C72.2909 31.4841 72.3325 30.2595 72.6295 29.2401C72.8724 28.4007 73.7244 27.6091 73.7596 27.5764L73.8653 27.4807L73.956 27.5915C75.2296 29.1722 77.2193 30.1916 79.024 30.1916C81.4378 30.1916 82.612 29.4868 82.612 28.0345C82.612 26.6602 82.0986 26.2323 79.5677 25.4923L78.1393 25.0744C74.5298 24.0273 72.7755 21.9181 72.7755 18.6296C72.7755 14.8137 75.8412 12.3483 80.5846 12.3483C81.4869 12.3483 82.8021 12.4628 83.79 12.7926C85.1618 13.2456 86.4996 13.8522 86.4996 15.7878C86.4996 16.9696 85.7634 17.6492 85.7319 17.6781L85.6627 17.741L85.5809 17.697C84.1588 16.9608 82.315 16.4649 80.9923 16.4649C78.7497 16.4649 77.6598 17.1458 77.6598 18.5465C77.6598 19.8163 78.6452 20.3424 80.5821 20.9201L82.0105 21.3392C85.9295 22.4794 87.4561 24.274 87.4561 27.74C87.4561 31.9887 84.6785 34.2327 79.4255 34.2327Z" fill="#566E88"/>
<path d="M4.38379 18.4005V14.5004C4.38379 13.0405 5.54414 11.8524 6.96753 11.8524H9.55378V15.7551C9.55378 17.2137 8.39343 18.4018 6.96879 18.4018H4.38379V18.4005Z" fill="#EB5753"/>
<path d="M4.38379 33.5644V29.6643C4.38379 28.2031 5.54414 27.0163 6.97005 27.0163H9.55504V30.919C9.55504 32.3764 8.39469 33.5657 6.97005 33.5657H4.38379V33.5644Z" fill="#EB5753"/>
<path d="M98.1654 34.2326C93.4006 34.2326 91.4575 32.0856 91.4575 26.82V16.8474H88.5176V16.1653C88.5176 14.4764 89.8252 13.0933 91.4562 13.0203V11.7353C91.4562 9.10001 93.5504 6.95801 96.1241 6.95801H96.2587V13.0165H100.88L100.874 13.1625C100.777 15.229 99.1193 16.8487 97.0994 16.8487H96.2587V26.3631C96.2587 29.9373 97.2869 30.1928 98.9809 30.1928C100.082 30.1928 100.966 31.0322 101.025 32.102V34.2339H98.1654V34.2326Z" fill="#566E88"/>
<path d="M4.38379 25.1335V24.9964C4.38379 22.361 6.47796 20.2178 9.05038 20.2178H13.0235C16.2441 20.2165 17.9821 17.5938 17.9821 15.1271C17.9821 12.6604 16.2428 10.0364 13.021 10.0364H4.38379V9.89792C4.38379 7.26258 6.47796 5.11932 9.05038 5.11932H13.615C19.0053 5.11932 23.3912 9.60972 23.3912 15.1271C23.3912 20.6457 19.0065 25.1348 13.615 25.1348H4.38379V25.1335Z" fill="#566E88"/>
<path d="M124.64 16.5115C122.145 16.5115 120.575 18.3703 120.205 21.7494L122.32 21.7482C123.609 21.7482 124.762 21.6185 125.659 21.3731C127.174 20.9566 127.942 20.2279 127.942 19.2085C127.942 17.6215 126.584 16.5115 124.64 16.5115ZM124.64 34.2314C118.765 34.2314 115.115 30.077 115.115 23.3956V23.1854C115.115 16.5027 118.765 12.3508 124.64 12.3508C126.783 12.3508 128.659 12.9926 130.068 14.2134C131.217 15.2102 132 16.5543 132.22 17.9034C132.483 19.513 132.327 20.8534 131.757 21.8853C131.166 22.95 130.317 23.5088 129.422 24.0336C128.439 24.6125 127.31 25.0102 126.074 25.2129C125.178 25.3563 124.219 25.379 123.321 25.379L122.334 25.3765L120.279 25.3752C120.595 28.1616 122.505 30.072 124.998 30.072C128.126 30.072 130.196 28.3013 130.779 27.5927L130.877 27.4719L131.103 27.7198C131.573 28.232 132.018 28.7178 132.203 29.6416C132.402 30.6534 131.989 31.6414 131.037 32.4229C130.433 32.9616 129.421 33.4222 128.742 33.6525C127.635 34.0263 126.179 34.2314 124.64 34.2314Z" fill="#566E88"/>
<path d="M171.053 19.2664V30.4546C171.053 32.17 169.69 33.5644 168.015 33.5644H166.25V21.1403C166.25 18.5427 165.625 16.9331 163.188 16.9331C161.667 16.9331 160.154 17.8266 159.012 19.2676V30.4559C159.012 32.1712 157.648 33.5657 155.974 33.5657H154.21V13.0178H156.289C157.447 13.0178 158.436 13.8447 158.683 14.9824C160.198 13.3539 162.243 12.3483 164.445 12.3483C167.458 12.3483 169.232 13.8157 170.008 15.1107C171.914 13.3035 173.974 12.3483 176.404 12.3483C180.809 12.3483 183.094 14.8679 183.094 20.053V30.4546C183.094 32.17 181.73 33.5644 180.056 33.5644H178.292V21.1403C178.292 18.5427 177.666 16.9331 175.23 16.9331C173.706 16.9318 172.195 17.8254 171.053 19.2664Z" fill="#566E88"/>
</svg>
